<svg xmlns="http://www.w3.org/2000/svg" viewBox="0 0 374 356" width="374" height="356" shape-rendering="crispEdges">
  <g fill="#2563eb" stroke="#2563eb" stroke-width="5" stroke-linecap="butt" stroke-linejoin="miter" stroke-miterlimit="10">
    <path d="
M 235.00 130.00 
C 239.57 136.66 246.90 143.67 238.00 150.00
C 235.20 148.36 231.51 150.25 229.00 152.00
C 224.47 154.39 220.46 158.47 215.00 158.00
C 205.51 140.45 195.96 122.13 185.00 105.00
C 181.32 108.03 180.32 113.71 177.00 117.00
C 176.49 118.19 176.44 119.74 176.00 121.00
C 174.88 124.22 173.02 128.03 170.00 130.00
C 170.00 130.50 170.00 131.00 170.00 131.00
C 167.59 137.67 161.84 144.40 158.00 150.00
C 151.15 163.11 143.82 176.37 136.00 189.00
C 132.37 200.43 122.13 212.97 118.00 226.00
C 124.09 227.97 131.44 223.09 138.00 220.00
C 140.33 219.05 142.67 218.19 145.00 217.00
C 150.10 214.39 154.71 210.95 160.00 209.00
C 162.25 207.55 164.55 205.51 167.00 204.00
C 168.71 202.94 170.11 201.68 172.00 201.00
C 172.44 200.84 173.00 201.00 173.00 201.00
C 177.55 196.25 185.76 191.45 192.00 189.00
C 192.43 188.83 193.00 189.00 193.00 189.00
C 195.55 186.34 199.13 183.29 203.00 183.00
C 203.50 182.96 204.00 183.00 204.00 183.00
C 208.87 175.22 223.22 172.39 230.70 166.70 C 238.17 161.00 249.46 155.04 258.00 151.00
C 261.19 149.49 263.97 147.87 267.00 146.00
C 276.95 139.84 296.95 123.50 309.00 128.00
C 312.99 129.49 317.51 134.06 319.00 138.00
C 323.13 148.92 318.77 163.91 320.00 176.00 C 321.23 188.09 320.93 199.40 320.01 211.01 C 319.09 222.61 321.60 238.52 320.00 250.00 C 318.40 261.48 324.28 277.70 318.00 287.00
C 317.65 288.53 315.96 289.15 315.00 290.00
C 302.51 300.98 286.01 287.25 273.92 281.08 C 261.84 274.90 250.05 265.57 237.75 259.25 C 225.45 252.93 213.04 244.99 201.00 238.00
C 203.29 231.72 211.04 229.29 217.00 228.00
C 222.84 224.98 223.54 219.78 231.00 222.00
C 246.32 226.56 260.97 238.43 275.00 246.00
C 278.43 247.85 280.98 251.47 285.08 251.92 C 289.17 252.38 288.00 240.79 288.00 238.00
C 288.00 228.07 288.39 215.68 288.00 206.00 C 287.61 196.32 289.04 182.77 288.00 174.00 C 286.96 165.23 274.68 176.72 269.77 179.77 C 264.86 182.82 254.17 188.67 249.00 192.00
C 238.16 198.99 226.51 204.72 215.00 211.00
C 203.10 217.49 191.41 226.12 179.00 232.00
C 177.62 232.92 176.68 234.14 175.00 235.00
C 169.17 236.18 162.45 241.43 157.00 244.00
C 156.25 244.54 155.88 245.45 155.00 246.00
C 152.30 248.42 148.07 250.03 146.00 251.00
C 139.61 255.15 132.87 259.00 126.00 262.00
C 125.75 262.09 125.30 262.79 125.00 263.00
C 123.07 265.56 120.91 266.75 118.00 268.00
C 101.55 275.10 85.84 285.54 70.00 294.00
C 67.35 295.41 64.95 297.26 62.00 295.00
C 61.71 294.78 61.27 294.17 61.00 294.00
C 59.04 292.75 57.00 291.91 55.00 291.00
C 52.65 289.93 45.60 285.51 49.00 281.00
C 69.27 240.84 93.06 203.13 115.00 165.00
C 127.24 143.73 142.28 122.52 152.00 100.00
C 154.69 93.78 158.23 88.44 162.00 83.00
C 167.11 73.74 178.91 51.28 192.23 60.77 C 205.55 70.26 206.35 82.76 214.30 94.70 C 222.26 106.63 228.17 117.62 235.00 130.00 Z"/>
  </g>
</svg>
